<?xml version="1.0" standalone="no"?>
<!DOCTYPE svg PUBLIC "-//W3C//DTD SVG 20010904//EN"
 "http://www.w3.org/TR/2001/REC-SVG-20010904/DTD/svg10.dtd">
<svg version="1.0" xmlns="http://www.w3.org/2000/svg"
 width="460.000000pt" height="103.000000pt" viewBox="0 0 460.000000 103.000000"
 preserveAspectRatio="xMidYMid meet">

<g transform="translate(0.000000,103.000000) scale(0.100000,-0.100000)"
fill="#000000" stroke="none">
<path d="M444 1009 c-212 -28 -379 -181 -429 -391 -20 -84 -19 -120 5 -214 44
-170 169 -305 329 -355 105 -32 165 -34 261 -10 198 50 335 194 376 395 21
104 7 198 -48 307 -91 182 -298 295 -494 268z m166 -25 c169 -38 310 -177 355
-349 65 -251 -94 -513 -350 -580 -251 -65 -513 94 -580 350 -42 162 6 329 129
450 126 124 277 168 446 129z"/>
<path d="M373 872 c-158 -56 -267 -229 -248 -394 15 -124 101 -246 212 -298
227 -106 488 29 534 276 29 156 -62 329 -210 402 -73 35 -209 42 -288 14z
m271 -20 c137 -62 218 -186 218 -337 -1 -142 -78 -262 -210 -327 -60 -30 -75
-33 -152 -32 -104 0 -173 28 -250 100 -202 189 -124 523 143 610 62 20 190 13
251 -14z"/>
<path d="M434 860 c-106 -22 -203 -98 -250 -198 -23 -48 -28 -71 -28 -142 -1
-77 2 -92 32 -152 38 -77 92 -130 171 -167 47 -22 70 -26 141 -26 76 0 93 4
152 33 77 38 128 91 166 172 35 74 37 188 4 271 -57 143 -237 240 -388 209z
m96 -35 c7 -9 10 -18 7 -22 -15 -14 32 -64 135 -143 61 -47 120 -92 131 -101
45 -35 -13 -51 -88 -24 -38 14 -41 13 -65 -9 -14 -13 -40 -31 -58 -40 l-33
-17 46 -51 c31 -34 50 -68 61 -106 16 -55 16 -56 -6 -74 -41 -33 -62 -20 -78
45 -14 56 -56 117 -82 117 -26 0 -68 -61 -82 -117 -15 -64 -33 -75 -74 -48
-21 14 -24 21 -18 53 8 45 43 108 78 141 28 26 34 51 13 51 -7 0 -31 15 -54
34 l-40 35 -43 -15 c-48 -17 -91 -15 -97 3 -2 6 39 43 92 83 103 76 185 147
185 161 0 48 44 76 70 44z m0 -596 c0 -4 -10 -6 -21 -4 -12 2 -30 0 -40 -6
-14 -7 -17 -6 -14 4 6 14 75 20 75 6z"/>
<path d="M430 654 l-65 -65 29 -23 c65 -53 147 -53 212 0 l29 23 -65 65 c-35
36 -67 66 -70 66 -3 0 -35 -30 -70 -66z m104 -39 c19 -14 19 -15 -7 -39 l-27
-25 -27 25 c-26 24 -26 25 -7 39 10 8 26 14 34 14 8 0 24 -6 34 -14z"/>
<path d="M3920 751 c0 -10 -7 -24 -15 -31 -12 -10 -15 -10 -15 3 0 18 -28 43
-38 33 -3 -4 1 -20 10 -36 15 -26 15 -30 0 -43 -28 -24 -62 -39 -62 -27 0 20
-20 9 -35 -20 -22 -43 -8 -61 20 -26 26 32 127 62 154 46 9 -5 14 -10 11 -11
-3 -1 -32 -6 -64 -13 -34 -6 -61 -17 -64 -25 -5 -14 4 -13 53 4 18 6 18 5 -2
-13 -18 -16 -20 -21 -8 -26 25 -9 17 -22 -25 -39 -22 -8 -40 -20 -40 -26 0 -6
14 -4 35 5 47 19 47 19 43 -23 -3 -34 -6 -38 -30 -38 -26 1 -26 0 -11 -17 9
-10 20 -18 24 -18 20 0 39 35 39 71 0 33 3 39 21 39 12 0 19 5 16 13 -2 6 -12
12 -22 12 -26 0 -29 20 -8 49 13 18 28 25 50 26 17 0 35 5 39 12 11 18 -26 38
-70 38 l-41 0 33 26 c34 27 42 58 17 68 -10 3 -15 -1 -15 -13z"/>
<path d="M3040 733 c0 -62 -8 -70 -68 -77 -74 -9 -102 -16 -102 -27 0 -5 18
-6 40 -3 l40 7 -14 -47 c-8 -25 -23 -62 -35 -82 -25 -42 -25 -44 -6 -44 8 0
19 9 25 20 11 21 11 21 30 -2 l18 -23 12 30 c6 17 14 51 17 78 5 39 3 47 -11
47 -9 0 -16 7 -16 16 0 12 7 15 31 12 22 -4 34 0 42 14 7 10 23 18 37 18 14 0
32 5 40 11 11 8 5 9 -25 6 l-40 -4 3 38 c3 24 0 39 -7 39 -6 0 -11 -12 -11
-27z m-60 -157 c0 -30 -23 -77 -32 -68 -7 7 -6 23 2 46 11 35 30 49 30 22z"/>
<path d="M3499 706 c-10 -42 -13 -44 -52 -50 -51 -8 -85 -26 -49 -26 27 0 28
-14 3 -63 -10 -20 -22 -49 -26 -64 -5 -23 -4 -25 9 -14 13 11 17 10 22 -3 10
-25 23 -19 41 19 9 19 22 35 29 35 7 0 19 3 28 6 12 5 16 -1 16 -24 0 -46 -10
-62 -39 -63 l-26 -1 29 -10 c38 -14 56 8 56 69 0 40 2 43 28 44 20 1 22 3 7 6
-47 10 -49 12 -31 31 27 31 20 45 -19 38 -28 -6 -34 -4 -29 8 3 8 21 17 40 20
19 4 34 11 34 16 0 12 -3 12 -34 0 -26 -9 -26 -9 -20 30 9 54 -3 51 -17 -4z
m-26 -75 c-3 -13 2 -23 16 -30 27 -15 27 -41 1 -41 -13 0 -20 7 -20 20 0 11
-7 23 -15 26 -21 8 -19 32 3 37 9 3 18 5 19 6 0 0 -1 -8 -4 -18z m57 -21 c0
-5 -5 -10 -11 -10 -5 0 -7 5 -4 10 3 6 8 10 11 10 2 0 4 -4 4 -10z m-85 -42
c-4 -13 -9 -31 -11 -40 -3 -10 -10 -18 -15 -18 -12 0 -11 7 3 47 13 37 33 46
23 11z"/>
<path d="M4326 722 c5 -30 4 -33 -14 -30 -11 2 -29 -5 -40 -15 -21 -19 -21
-19 -10 17 6 20 9 39 5 42 -8 8 -97 -26 -97 -37 0 -5 7 -9 15 -9 12 0 14 -21
12 -130 -1 -80 2 -131 8 -132 6 -2 11 29 13 74 l3 76 29 -8 c16 -5 39 -6 52
-2 l23 6 -19 -30 c-10 -16 -28 -39 -39 -51 -16 -18 -17 -23 -5 -23 17 0 39 22
62 65 l16 30 -6 -46 c-7 -56 0 -63 69 -61 59 1 67 8 60 46 l-6 28 -13 -31
c-12 -29 -17 -32 -51 -29 l-38 3 1 45 c1 25 -4 48 -10 52 -6 4 2 11 18 18 21
7 26 14 19 21 -8 8 -18 7 -34 -2 -37 -19 -77 -19 -82 2 -7 24 33 59 80 70 61
14 69 12 48 -11 -18 -19 -17 -20 2 -20 26 0 58 24 49 38 -4 7 -24 12 -44 12
-27 0 -42 7 -60 28 l-23 27 7 -33z m-89 -72 c2 -28 -2 -50 -7 -50 -6 0 -10 23
-10 50 0 65 14 65 17 0z"/>
<path d="M2492 686 c-17 -29 -38 -56 -46 -59 -18 -7 -22 -37 -4 -37 6 0 20 8
31 18 19 17 19 16 12 -80 -5 -66 -3 -98 4 -98 15 0 24 64 19 140 -4 56 -2 74
13 97 11 15 19 36 19 45 0 36 -19 26 -48 -26z"/>
<path d="M2600 679 c0 -52 -3 -62 -20 -66 -25 -7 -26 -23 -2 -30 14 -3 17 -12
14 -39 -6 -54 18 -74 88 -74 63 0 84 14 78 52 -3 22 -4 22 -18 -7 -13 -25 -22
-30 -56 -33 -58 -4 -78 17 -71 76 3 31 14 53 36 76 29 30 40 56 24 56 -4 0
-17 -12 -30 -27 l-22 -28 -1 53 c0 28 -4 52 -10 52 -6 0 -10 -27 -10 -61z"/>
<path d="M2938 734 c-10 -9 23 -64 38 -64 19 0 18 35 -2 54 -16 17 -27 20 -36
10z"/>
<path d="M3434 724 c3 -8 6 -24 6 -35 0 -10 5 -19 10 -19 17 0 11 57 -6 64
-12 5 -15 2 -10 -10z"/>
<path d="M3800 730 c0 -15 31 -60 41 -60 18 0 9 49 -10 60 -25 13 -31 13 -31
0z"/>
<path d="M1628 724 c-9 -8 29 -44 47 -44 22 0 19 27 -4 40 -22 11 -35 13 -43
4z"/>
<path d="M2120 725 c0 -3 6 -21 14 -39 l14 -34 -56 -7 c-38 -5 -51 -10 -41
-15 8 -5 36 -4 62 2 27 5 50 8 53 6 2 -3 -1 -19 -7 -37 l-12 -33 -22 28 c-13
16 -26 26 -30 22 -4 -4 5 -19 19 -35 22 -24 24 -30 12 -48 -7 -11 -35 -32 -62
-47 l-49 -28 32 0 c24 0 44 10 72 35 l38 35 19 -22 c22 -24 74 -48 104 -48 33
0 23 16 -20 29 -21 6 -52 22 -68 36 -27 23 -28 26 -18 69 9 41 14 46 38 46 16
0 28 5 28 10 0 6 -18 10 -41 10 -25 0 -38 4 -34 10 8 12 -21 60 -35 60 -6 0
-10 -2 -10 -5z"/>
<path d="M3350 715 c0 -12 33 -55 41 -55 13 0 11 34 -3 48 -12 12 -38 17 -38
7z"/>
<path d="M1251 699 c-47 -5 -87 -12 -90 -15 -13 -12 24 -21 58 -13 20 5 69 9
109 9 68 0 92 10 56 24 -17 7 -16 7 -133 -5z"/>
<path d="M1755 671 c-33 -7 -37 -24 -7 -29 16 -2 18 -9 13 -39 -5 -30 -12 -38
-40 -48 -48 -16 -26 -25 33 -14 26 5 60 6 73 2 19 -4 24 -2 21 8 -2 8 -16 15
-31 17 -24 3 -26 7 -24 42 1 22 8 42 15 45 6 2 12 9 12 15 0 11 -18 11 -65 1z"/>
<path d="M1320 657 c-12 -7 -22 -15 -21 -19 0 -5 1 -44 1 -89 0 -67 3 -80 15
-75 8 3 19 -2 24 -11 8 -14 12 -15 25 -4 17 15 19 45 10 139 -7 65 -18 77 -54
59z m34 -23 c10 -26 7 -32 -14 -27 -11 3 -20 14 -20 24 0 23 25 25 34 3z m6
-117 c0 -22 -4 -28 -17 -25 -13 2 -19 15 -21 46 -3 42 -3 43 17 25 12 -10 21
-30 21 -46z"/>
<path d="M1238 653 c-19 -5 -23 -18 -32 -94 -6 -53 2 -90 18 -88 6 1 19 -1 29
-6 10 -4 20 -6 22 -4 7 8 9 175 1 187 -7 12 -9 13 -38 5z m22 -40 c0 -26 -1
-26 -17 -10 -16 16 -16 19 -3 27 20 13 20 13 20 -17z m0 -101 c0 -40 -25 -19
-28 24 -3 37 -2 38 12 19 8 -11 16 -30 16 -43z"/>
<path d="M3058 637 c-25 -20 -28 -30 -34 -114 -4 -61 -3 -93 3 -93 12 0 30 40
38 85 l5 30 -14 -30 -15 -30 -1 38 c0 20 5 37 11 37 6 0 31 -13 56 -30 51 -35
53 -35 53 -15 0 9 -16 25 -36 37 l-35 21 22 23 c32 34 15 43 -19 11 -31 -29
-52 -35 -52 -13 0 7 14 19 30 26 17 7 30 19 30 26 0 19 -10 17 -42 -9z"/>
<path d="M4313 636 c3 -7 0 -20 -6 -27 -7 -7 -3 -6 9 4 11 9 26 17 32 17 6 0
14 5 17 10 4 6 -7 10 -25 10 -23 0 -31 -4 -27 -14z"/>
<path d="M1580 631 c0 -11 25 -21 51 -21 23 0 25 15 3 24 -23 9 -54 7 -54 -3z"/>
<path d="M3310 632 c0 -5 12 -14 26 -21 22 -10 25 -9 22 6 -3 18 -48 32 -48
15z"/>
<path d="M1660 550 c-7 -21 -16 -37 -20 -35 -9 6 -20 -19 -20 -46 0 -22 13
-25 27 -6 10 13 36 118 30 124 -2 2 -10 -15 -17 -37z"/>
<path d="M3362 546 c-7 -15 -17 -24 -22 -21 -6 4 -10 -9 -10 -30 0 -50 21 -41
37 16 15 52 12 72 -5 35z"/>
<path d="M1180 245 l0 -55 38 1 c30 2 32 3 10 6 -26 4 -28 8 -28 54 0 27 -4
49 -10 49 -5 0 -10 -25 -10 -55z"/>
<path d="M1300 245 c0 -30 5 -55 10 -55 6 0 10 25 10 55 0 30 -4 55 -10 55 -5
0 -10 -25 -10 -55z"/>
<path d="M1422 268 c-2 -43 -11 -68 -23 -68 -5 0 -9 7 -9 15 0 8 -5 15 -11 15
-20 0 -4 -35 19 -38 27 -4 34 12 29 69 -3 42 -4 42 -5 7z"/>
<path d="M1490 246 c0 -31 5 -56 10 -56 6 0 10 22 10 49 0 28 -4 53 -10 56 -6
4 -10 -15 -10 -49z"/>
<path d="M1568 245 c-8 -30 -11 -55 -6 -55 5 0 11 7 14 15 4 8 12 15 20 15 8
0 14 -7 14 -15 0 -8 5 -15 10 -15 13 0 13 -3 -5 58 -9 29 -19 52 -24 52 -4 0
-15 -25 -23 -55z"/>
<path d="M1650 245 c0 -30 5 -55 10 -55 6 0 10 15 10 33 l1 32 14 -32 c21 -49
35 -40 35 23 0 34 -4 53 -10 49 -5 -3 -10 -18 -10 -33 -1 -27 -1 -27 -15 6
-21 48 -35 39 -35 -23z"/>
<path d="M1763 292 c-18 -11 -26 -58 -13 -81 6 -13 21 -21 35 -21 20 0 25 5
25 25 0 17 -5 25 -17 25 -15 0 -16 -2 -3 -10 12 -7 12 -12 2 -22 -10 -10 -15
-10 -22 2 -13 20 -13 57 0 65 6 4 18 1 27 -6 13 -11 15 -11 12 6 -5 21 -27 30
-46 17z"/>
<path d="M1944 275 c-13 -20 -15 -33 -8 -53 12 -34 48 -41 64 -13 13 26 2 28
-16 4 -12 -16 -15 -16 -24 -3 -15 23 -12 60 6 67 9 3 20 0 26 -8 7 -11 8 -9 6
6 -5 30 -34 30 -54 0z"/>
<path d="M2032 248 c3 -51 4 -53 33 -53 29 0 30 2 33 53 2 30 -1 52 -7 52 -5
0 -11 -21 -13 -47 -2 -27 -7 -48 -13 -48 -5 0 -11 21 -13 48 -2 26 -8 47 -13
47 -6 0 -9 -22 -7 -52z"/>
<path d="M2128 294 c-5 -4 -8 -29 -8 -56 l0 -48 38 1 c29 2 31 3 10 6 -25 4
-27 9 -30 55 -2 27 -6 46 -10 42z"/>
<path d="M2220 290 c0 -5 5 -10 10 -10 6 0 10 -20 10 -45 0 -25 5 -45 10 -45
6 0 10 20 10 45 0 25 5 45 10 45 6 0 10 5 10 10 0 6 -13 10 -30 10 -16 0 -30
-4 -30 -10z"/>
<path d="M2316 289 c-4 -9 -6 -34 -4 -55 3 -36 5 -39 33 -39 29 0 30 1 33 53
2 36 0 52 -7 47 -6 -3 -11 -27 -11 -51 0 -62 -23 -53 -31 12 -3 33 -8 44 -13
33z"/>
<path d="M2410 245 c0 -30 5 -55 10 -55 6 0 10 10 11 23 l0 22 16 -22 c19 -28
38 -30 23 -3 -8 14 -7 25 2 39 15 25 -4 51 -38 51 -22 0 -24 -4 -24 -55z m48
23 c-6 -18 -28 -21 -28 -4 0 9 7 16 16 16 9 0 14 -5 12 -12z"/>
<path d="M2500 245 l0 -55 38 1 c30 2 32 3 10 6 -35 5 -39 40 -5 46 l22 4 -22
2 c-28 1 -31 31 -3 31 11 0 20 5 20 10 0 6 -13 10 -30 10 -30 0 -30 -1 -30
-55z"/>
<path d="M2710 274 c-19 -49 -23 -84 -11 -84 6 0 11 7 11 15 0 8 7 15 15 15 8
0 15 -7 15 -15 0 -8 5 -15 10 -15 13 0 13 4 -2 54 -16 57 -25 64 -38 30z m17
-36 c-3 -8 -6 -5 -6 6 -1 11 2 17 5 13 3 -3 4 -12 1 -19z"/>
<path d="M2787 294 c-11 -11 -8 -104 3 -104 6 0 10 15 11 33 l0 32 16 -32 c24
-48 33 -41 32 25 -1 31 -4 45 -6 30 -4 -25 -23 -41 -23 -20 0 15 -26 43 -33
36z"/>
<path d="M2880 245 c0 -52 1 -55 25 -55 41 0 61 63 29 94 -8 9 -24 16 -35 16
-16 0 -19 -7 -19 -55z m48 3 c2 -13 -4 -31 -12 -38 -14 -11 -16 -7 -16 30 0
46 23 53 28 8z"/>
<path d="M3070 290 c0 -5 5 -10 10 -10 6 0 10 -20 10 -45 0 -25 5 -45 10 -45
6 0 10 20 10 45 0 25 5 45 10 45 6 0 10 5 10 10 0 6 -13 10 -30 10 -16 0 -30
-4 -30 -10z"/>
<path d="M3172 288 c-14 -14 -16 -67 -3 -86 4 -8 19 -12 32 -10 20 2 25 10 27
41 5 55 -26 85 -56 55z m36 -45 c-2 -21 -7 -38 -13 -38 -5 0 -11 17 -13 38 -3
29 0 37 13 37 13 0 16 -8 13 -37z"/>
<path d="M3262 247 c-2 -58 -2 -58 26 -55 26 3 27 6 28 58 1 30 0 42 -2 25
-13 -91 -35 -100 -45 -19 l-6 49 -1 -58z"/>
<path d="M3350 245 c0 -57 16 -76 22 -27 l4 27 12 -27 c6 -16 16 -28 22 -28 8
0 8 6 0 20 -8 14 -7 25 2 39 15 25 -4 51 -38 51 -22 0 -24 -4 -24 -55z m50 20
c0 -8 -7 -15 -15 -15 -8 0 -15 7 -15 15 0 8 7 15 15 15 8 0 15 -7 15 -15z"/>
<path d="M3470 245 c0 -30 5 -55 10 -55 6 0 10 25 10 55 0 30 -4 55 -10 55 -5
0 -10 -25 -10 -55z"/>
<path d="M3549 284 c-12 -14 -10 -19 14 -38 15 -12 27 -27 27 -34 0 -16 -27
-16 -33 1 -2 6 -8 9 -12 5 -12 -12 5 -28 31 -28 37 0 43 29 11 54 -32 26 -35
40 -6 33 13 -3 19 -1 16 6 -6 19 -33 19 -48 1z"/>
<path d="M3636 293 c-10 -10 -7 -103 3 -103 5 0 12 10 14 23 l4 22 2 -22 c1
-27 21 -31 22 -5 0 14 2 14 9 -3 6 -14 9 -4 9 38 1 32 -3 57 -9 57 -5 0 -10
-9 -10 -19 0 -11 -4 -23 -10 -26 -5 -3 -10 3 -10 14 0 21 -13 35 -24 24z"/>
<path d="M3831 281 c-15 -28 -14 -66 4 -81 20 -17 49 -8 53 15 3 19 2 19 -12
1 -19 -24 -36 -12 -36 24 0 35 15 46 37 29 13 -11 15 -11 12 6 -6 28 -45 32
-58 6z"/>
<path d="M3933 293 c-20 -8 -17 -92 3 -100 39 -15 68 42 44 87 -11 20 -23 23
-47 13z m32 -53 c0 -18 -5 -35 -12 -37 -15 -5 -26 31 -18 58 10 31 30 17 30
-21z"/>
<path d="M4018 294 c-5 -4 -8 -29 -8 -56 l0 -48 38 1 c29 2 31 3 10 6 -25 4
-27 9 -30 55 -2 27 -6 46 -10 42z"/>
<path d="M4112 248 l-2 -58 33 1 c29 1 30 2 7 8 -21 6 -26 14 -31 56 l-6 50
-1 -57z"/>
<path d="M4200 245 l0 -55 38 1 c30 2 32 3 10 6 -35 5 -39 40 -5 46 l22 4 -22
2 c-28 1 -31 31 -3 31 11 0 20 5 20 10 0 6 -13 10 -30 10 -30 0 -30 -1 -30
-55z"/>
<path d="M4313 292 c-18 -11 -26 -58 -13 -81 6 -13 21 -21 35 -21 20 0 25 5
25 25 0 17 -5 25 -17 25 -15 0 -16 -2 -3 -10 12 -7 12 -12 2 -22 -10 -10 -15
-10 -22 2 -13 20 -13 57 0 65 6 4 18 1 27 -6 13 -11 15 -11 12 6 -5 21 -27 30
-46 17z"/>
<path d="M4390 245 l0 -55 38 1 c30 2 32 3 10 6 -35 5 -39 40 -5 46 l22 4 -22
2 c-28 1 -31 31 -3 31 11 0 20 5 20 10 0 6 -13 10 -30 10 -30 0 -30 -1 -30
-55z"/>
</g>
</svg>
